<?xml version="1.0" encoding="UTF-8"?>
<svg xmlns="http://www.w3.org/2000/svg" xmlns:xlink="http://www.w3.org/1999/xlink" version="1.1" id="Layer_1" x="0px" y="0px" width="100%" viewBox="0 0 2000 2000" enable-background="new 0 0 2000 2000" xml:space="preserve" style="background: transparent;">
<path fill="none" opacity="1.000000" stroke="none" d=" M1107.000000,2001.000000   C738.000000,2001.000000 369.500000,2001.000000 1.000000,2001.000000   C1.000000,1334.333374 1.000000,667.666687 1.000000,1.000000   C667.666687,1.000000 1334.333374,1.000000 2001.000000,1.000000   C2001.000000,667.666687 2001.000000,1334.333374 2001.000000,2001.000000   C1703.166626,2001.000000 1405.333374,2001.000000 1107.000000,2001.000000  M632.127319,1187.325562   C634.303223,1188.148438 636.427979,1189.167480 638.666382,1189.750732   C642.587585,1190.772583 646.331665,1190.456787 649.128479,1187.038696   C651.806702,1183.765625 652.215881,1180.149292 650.423767,1176.304443   C649.861511,1175.098145 649.301453,1173.890259 648.708679,1172.698853   C623.375854,1121.782104 598.074158,1070.849731 572.626587,1019.990479   C570.896790,1016.533264 570.708801,1013.866882 572.445251,1010.300293   C598.066772,957.675476 623.510010,904.963989 649.049194,852.299011   C651.306641,847.643921 652.484619,843.111938 648.598511,838.867920   C644.864502,834.790222 640.303650,835.456787 635.677063,837.178467   C600.780273,850.164185 565.891479,863.171875 530.960754,876.065735   C526.767273,877.613647 523.935486,880.156982 522.086548,884.196716   C519.528931,889.784790 516.679443,895.239258 513.657349,901.353027   C508.166473,890.342834 503.123413,880.227661 498.077759,870.113770   C493.179291,860.294922 488.300903,850.465942 483.366364,840.665222   C481.586578,837.130249 478.802582,834.999146 474.671753,835.016602   C470.573669,835.033875 467.767792,837.062134 465.966888,840.636108   C465.293549,841.972412 464.631989,843.314880 463.979523,844.661499   C455.222260,862.734802 446.467560,880.809387 437.419739,899.487366   C434.864868,894.540100 432.294464,890.253723 430.385773,885.690674   C428.026031,880.049377 424.167633,876.774963 418.351166,874.782043   C405.304382,870.311707 392.459412,865.253235 379.526276,860.450317   C358.333710,852.580017 337.151642,844.681030 315.932220,836.883728   C309.048615,834.354187 302.431488,837.859131 302.213898,844.408386   C302.121338,847.194580 303.375702,850.227234 304.664001,852.827881   C330.056549,904.086853 355.513092,955.314331 381.084595,1006.484253   C382.728638,1009.774109 382.889679,1012.264282 381.221588,1015.686218   C355.502869,1068.445435 329.973602,1121.296753 304.349030,1174.101929   C302.166260,1178.599976 301.102356,1182.948486 304.777313,1187.084717   C308.460358,1191.230103 312.879944,1190.711670 317.594818,1188.952148   C352.635010,1175.876831 387.691650,1162.845093 422.777100,1149.891968   C426.778107,1148.414673 429.549438,1146.074463 431.323151,1142.141113   C433.822876,1136.598022 436.710266,1131.229492 439.781708,1125.086670   C440.904297,1127.132080 441.722229,1128.509277 442.435425,1129.938843   C451.342133,1147.792358 460.240326,1165.650146 469.123993,1183.515137   C471.144592,1187.578613 473.681763,1190.926514 478.782471,1190.972900   C484.077148,1191.020874 486.736938,1187.723022 488.816040,1183.382690   C497.148865,1165.987549 505.582581,1148.640869 513.991211,1131.282104   C514.666870,1129.887207 515.435486,1128.537109 516.398071,1126.718018   C519.195374,1132.250854 521.813171,1137.078369 524.101135,1142.057495   C526.176697,1146.574463 529.378601,1149.307373 534.114807,1151.041382   C566.581055,1162.927124 598.967285,1175.031616 632.127319,1187.325562  M1479.595215,957.295715   C1476.805054,957.295715 1474.014893,957.295715 1470.959106,957.295715   C1470.959106,994.035645 1470.959106,1030.293091 1470.959106,1066.778076   C1479.675781,1066.778076 1488.280762,1066.778076 1497.534546,1066.778076   C1497.534546,1053.161499 1497.534546,1039.610474 1497.534546,1026.366211   C1502.239868,1024.776733 1504.396362,1026.434082 1506.337646,1030.156250   C1512.259277,1041.509766 1518.584351,1052.654297 1524.868286,1063.815063   C1525.584717,1065.087402 1527.011719,1066.827271 1528.149292,1066.857788   C1537.370850,1067.105835 1546.601929,1066.997070 1556.666748,1066.997070   C1548.058228,1052.165527 1539.925659,1038.154053 1531.787964,1024.133667   C1544.266724,1017.471741 1546.650024,1015.718933 1549.994995,1010.838257   C1564.865967,989.140625 1551.053223,960.497925 1524.010742,958.156799   C1509.614136,956.910461 1495.056641,957.522522 1479.595215,957.295715  M1212.379150,993.451233   C1212.379150,981.506531 1212.379150,969.561768 1212.379150,957.682495   C1203.132080,957.682495 1194.577881,957.682495 1186.014160,957.682495   C1186.014160,994.300171 1186.014160,1030.529907 1186.014160,1066.684204   C1194.918335,1066.684204 1203.491455,1066.684204 1212.682861,1066.684204   C1212.682861,1051.062500 1212.682861,1035.755859 1212.682861,1020.023254   C1213.572876,1020.623718 1213.891968,1020.742310 1214.067261,1020.971130   C1221.358765,1030.492065 1228.617188,1040.038574 1235.925415,1049.546509   C1240.386475,1055.350342 1243.822021,1063.335571 1249.733154,1066.239746   C1255.654907,1069.149048 1264.081665,1066.965454 1271.410522,1067.002563   C1274.591309,1067.018555 1277.772339,1067.005127 1281.850586,1067.005127   C1266.677856,1047.722168 1252.296021,1029.444214 1237.865845,1011.104736   C1252.028198,993.174988 1265.895264,975.619263 1280.366943,957.297852   C1269.909424,957.297852 1260.621582,957.154785 1251.346436,957.434875   C1249.750366,957.483093 1247.799438,959.010071 1246.709106,960.400391   C1240.029053,968.918640 1233.555542,977.598572 1227.001709,986.215942   C1222.514282,992.116394 1218.008179,998.002686 1213.510498,1003.895386   C1213.133301,1003.799194 1212.755981,1003.703003 1212.378784,1003.606812   C1212.378784,1000.547729 1212.378784,997.488647 1212.379150,993.451233  M1411.760010,1049.226318   C1416.795532,1041.637573 1418.942017,1033.193359 1418.974976,1024.185791   C1419.035889,1007.533936 1419.000610,990.881836 1419.004761,974.229858   C1419.006226,968.769470 1419.005127,963.309082 1419.005127,957.689148   C1409.882568,957.689148 1401.184692,957.689148 1392.196167,957.689148   C1392.196167,959.898438 1392.196655,961.715393 1392.196167,963.532349   C1392.190918,983.514709 1392.148926,1003.497131 1392.192505,1023.479431   C1392.224609,1038.162842 1382.727295,1045.930908 1366.587769,1042.584839   C1358.497070,1040.907349 1354.055908,1034.003296 1354.004639,1023.922668   C1353.901367,1003.607727 1353.965088,983.291992 1353.959961,962.976562   C1353.959473,961.215271 1353.959839,959.453918 1353.959839,957.594421   C1344.723389,957.594421 1336.148438,957.594421 1327.574097,957.594421   C1327.378296,958.337280 1327.148926,958.801453 1327.148926,959.265625   C1327.147705,981.578918 1326.871826,1003.897888 1327.295166,1026.203491   C1327.541748,1039.198975 1332.272095,1050.602051 1342.796021,1058.946655   C1360.488281,1072.975342 1396.662109,1071.760864 1411.760010,1049.226318  M802.988831,1055.513916   C830.333252,1078.423706 881.992859,1069.506470 890.497070,1029.476440   C881.455200,1029.476440 872.504517,1029.409668 863.557678,1029.567139   C862.520630,1029.585449 861.133606,1030.615112 860.537048,1031.568970   C853.874329,1042.222168 843.892395,1045.022095 832.383179,1042.811768   C821.475830,1040.716919 814.648010,1033.268188 812.591187,1022.716370   C811.258606,1015.879639 811.227417,1008.365967 812.552917,1001.531799   C814.638855,990.777039 821.591492,983.234436 832.727966,981.214233   C844.041443,979.161987 853.906128,981.954956 860.436096,992.430786   C860.993530,993.325195 862.061829,994.507446 862.909790,994.521301   C872.126343,994.671692 881.346191,994.615356 891.287415,994.615356   C889.733093,990.672546 888.707947,987.523682 887.290405,984.562683   C875.712158,960.377380 845.672363,949.580017 818.305786,959.700317   C780.153564,973.809143 771.338257,1026.799683 802.988831,1055.513916  M1064.204102,957.295654   C1056.166382,957.295654 1048.128662,957.295654 1039.342041,957.295654   C1040.720703,960.033264 1041.590088,961.798584 1042.493042,963.546631   C1053.017212,983.920166 1063.686646,1004.221008 1073.949219,1024.725464   C1075.859131,1028.541382 1076.834961,1033.140747 1077.031982,1037.434082   C1077.479126,1047.172974 1077.172852,1056.946533 1077.172852,1066.762207   C1086.411377,1066.762207 1094.994995,1066.762207 1103.998413,1066.762207   C1103.998413,1056.243896 1103.819702,1045.959351 1104.104736,1035.687622   C1104.192871,1032.515869 1104.976074,1029.090942 1106.406860,1026.272217   C1117.236450,1004.936401 1128.310059,983.724426 1139.294189,962.466980   C1140.085938,960.934875 1140.772949,959.348816 1141.740479,957.295776   C1132.609131,957.295776 1124.289673,957.466980 1115.983521,957.210327   C1112.735352,957.109985 1111.312500,958.416382 1110.096558,961.175415   C1105.809326,970.903076 1101.310181,980.537537 1096.867432,990.196289   C1095.017822,994.217590 1093.107422,998.211060 1090.896362,1002.915771   C1089.710938,1000.561584 1088.878906,999.017761 1088.142700,997.429504   C1082.553833,985.371887 1076.864990,973.357971 1071.489746,961.205566   C1070.117676,958.103699 1068.408325,956.705627 1064.204102,957.295654  M1002.059265,1063.340820   C1002.059265,1057.761230 1002.059265,1052.181763 1002.059265,1046.195801   C990.087036,1046.195801 978.835754,1046.195801 967.027710,1046.195801   C967.027710,1016.426636 967.027710,987.072937 967.027710,957.622131   C957.900635,957.622131 949.343262,957.622131 940.576843,957.622131   C940.576843,994.148987 940.576843,1030.349121 940.576843,1066.999756   C960.438293,1066.999756 980.038513,1067.031982 999.637390,1066.885864   C1000.450378,1066.879883 1001.250916,1065.204834 1002.059265,1063.340820  M725.666138,805.499817   C725.666138,951.800415 725.656982,1098.101074 725.748596,1244.401611   C725.750061,1246.708374 726.990356,1249.014404 727.652527,1251.320801   C728.381714,1249.045044 729.747864,1246.769775 729.749390,1244.493652   C729.849609,1090.361450 729.840149,936.229248 729.840088,782.097046   C729.840088,781.097290 730.111267,779.993835 729.778259,779.120972   C729.219910,777.657104 728.276489,776.340149 727.495117,774.961365   C726.885864,776.309387 725.775146,777.647888 725.749268,779.007080   C725.586914,787.502075 725.666870,796.001648 725.666138,805.499817  z"/>
<path fill="#FF3B20" opacity="1.000000" stroke="none" d=" M631.753296,1187.195557   C598.967285,1175.031616 566.581055,1162.927124 534.114807,1151.041382   C529.378601,1149.307373 526.176697,1146.574463 524.101135,1142.057495   C521.813171,1137.078369 519.195374,1132.250854 516.398071,1126.718018   C515.435486,1128.537109 514.666870,1129.887207 513.991211,1131.282104   C505.582581,1148.640869 497.148865,1165.987549 488.816040,1183.382690   C486.736938,1187.723022 484.077148,1191.020874 478.782471,1190.972900   C473.681763,1190.926514 471.144592,1187.578613 469.123993,1183.515137   C460.240326,1165.650146 451.342133,1147.792358 442.435425,1129.938843   C441.722229,1128.509277 440.904297,1127.132080 439.781708,1125.086670   C436.710266,1131.229492 433.822876,1136.598022 431.323151,1142.141113   C429.549438,1146.074463 426.778107,1148.414673 422.777100,1149.891968   C387.691650,1162.845093 352.635010,1175.876831 317.594818,1188.952148   C312.879944,1190.711670 308.460358,1191.230103 304.777313,1187.084717   C301.102356,1182.948486 302.166260,1178.599976 304.349030,1174.101929   C329.973602,1121.296753 355.502869,1068.445435 381.221588,1015.686218   C382.889679,1012.264282 382.728638,1009.774109 381.084595,1006.484253   C355.513092,955.314331 330.056549,904.086853 304.664001,852.827881   C303.375702,850.227234 302.121338,847.194580 302.213898,844.408386   C302.431488,837.859131 309.048615,834.354187 315.932220,836.883728   C337.151642,844.681030 358.333710,852.580017 379.526276,860.450317   C392.459412,865.253235 405.304382,870.311707 418.351166,874.782043   C424.167633,876.774963 428.026031,880.049377 430.385773,885.690674   C432.294464,890.253723 434.864868,894.540100 437.419739,899.487366   C446.467560,880.809387 455.222260,862.734802 463.979523,844.661499   C464.631989,843.314880 465.293549,841.972412 465.966888,840.636108   C467.767792,837.062134 470.573669,835.033875 474.671753,835.016602   C478.802582,834.999146 481.586578,837.130249 483.366364,840.665222   C488.300903,850.465942 493.179291,860.294922 498.077759,870.113770   C503.123413,880.227661 508.166473,890.342834 513.657349,901.353027   C516.679443,895.239258 519.528931,889.784790 522.086548,884.196716   C523.935486,880.156982 526.767273,877.613647 530.960754,876.065735   C565.891479,863.171875 600.780273,850.164185 635.677063,837.178467   C640.303650,835.456787 644.864502,834.790222 648.598511,838.867920   C652.484619,843.111938 651.306641,847.643921 649.049194,852.299011   C623.510010,904.963989 598.066772,957.675476 572.445251,1010.300293   C570.708801,1013.866882 570.896790,1016.533264 572.626587,1019.990479   C598.074158,1070.849731 623.375854,1121.782104 648.708679,1172.698853   C649.301453,1173.890259 649.861511,1175.098145 650.423767,1176.304443   C652.215881,1180.149292 651.806702,1183.765625 649.128479,1187.038696   C646.331665,1190.456787 642.587585,1190.772583 638.666382,1189.750732   C636.427979,1189.167480 634.303223,1188.148438 631.753296,1187.195557  z"/>
<path fill="#FF3D22" opacity="1.000000" stroke="none" d=" M1480.083496,957.295776   C1495.056641,957.522522 1509.614136,956.910461 1524.010742,958.156799   C1551.053223,960.497925 1564.865967,989.140625 1549.994995,1010.838257   C1546.650024,1015.718933 1544.266724,1017.471741 1531.787964,1024.133667   C1539.925659,1038.154053 1548.058228,1052.165527 1556.666748,1066.997070   C1546.601929,1066.997070 1537.370850,1067.105835 1528.149292,1066.857788   C1527.011719,1066.827271 1525.584717,1065.087402 1524.868286,1063.815063   C1518.584351,1052.654297 1512.259277,1041.509766 1506.337646,1030.156250   C1504.396362,1026.434082 1502.239868,1024.776733 1497.534546,1026.366211   C1497.534546,1039.610474 1497.534546,1053.161499 1497.534546,1066.778076   C1488.280762,1066.778076 1479.675781,1066.778076 1470.959106,1066.778076   C1470.959106,1030.293091 1470.959106,994.035645 1470.959106,957.295715   C1474.014893,957.295715 1476.805054,957.295715 1480.083496,957.295776  M1523.311035,981.995361   C1514.963989,977.863831 1506.211914,980.161072 1497.682251,979.757507   C1497.682251,989.088013 1497.682251,997.796814 1497.682251,1006.742126   C1503.676392,1006.742126 1509.304932,1006.909363 1514.918945,1006.695007   C1520.526489,1006.480835 1525.611938,1004.708374 1527.534424,998.825745   C1529.493042,992.832703 1529.162720,987.005432 1523.311035,981.995361  z"/>
<path fill="#FF3D22" opacity="1.000000" stroke="none" d=" M1212.378906,993.940430   C1212.378784,997.488647 1212.378784,1000.547729 1212.378784,1003.606812   C1212.755981,1003.703003 1213.133301,1003.799194 1213.510498,1003.895386   C1218.008179,998.002686 1222.514282,992.116394 1227.001709,986.215942   C1233.555542,977.598572 1240.029053,968.918640 1246.709106,960.400391   C1247.799438,959.010071 1249.750366,957.483093 1251.346436,957.434875   C1260.621582,957.154785 1269.909424,957.297852 1280.366943,957.297852   C1265.895264,975.619263 1252.028198,993.174988 1237.865845,1011.104736   C1252.296021,1029.444214 1266.677856,1047.722168 1281.850586,1067.005127   C1277.772339,1067.005127 1274.591309,1067.018555 1271.410522,1067.002563   C1264.081665,1066.965454 1255.654907,1069.149048 1249.733154,1066.239746   C1243.822021,1063.335571 1240.386475,1055.350342 1235.925415,1049.546509   C1228.617188,1040.038574 1221.358765,1030.492065 1214.067261,1020.971130   C1213.891968,1020.742310 1213.572876,1020.623718 1212.682861,1020.023254   C1212.682861,1035.755859 1212.682861,1051.062500 1212.682861,1066.684204   C1203.491455,1066.684204 1194.918335,1066.684204 1186.014160,1066.684204   C1186.014160,1030.529907 1186.014160,994.300171 1186.014160,957.682495   C1194.577881,957.682495 1203.132080,957.682495 1212.379150,957.682495   C1212.379150,969.561768 1212.379150,981.506531 1212.378906,993.940430  z"/>
<path fill="#FF3D22" opacity="1.000000" stroke="none" d=" M1411.539917,1049.512817   C1396.662109,1071.760864 1360.488281,1072.975342 1342.796021,1058.946655   C1332.272095,1050.602051 1327.541748,1039.198975 1327.295166,1026.203491   C1326.871826,1003.897888 1327.147705,981.578918 1327.148926,959.265625   C1327.148926,958.801453 1327.378296,958.337280 1327.574097,957.594421   C1336.148438,957.594421 1344.723389,957.594421 1353.959839,957.594421   C1353.959839,959.453918 1353.959473,961.215271 1353.959961,962.976562   C1353.965088,983.291992 1353.901367,1003.607727 1354.004639,1023.922668   C1354.055908,1034.003296 1358.497070,1040.907349 1366.587769,1042.584839   C1382.727295,1045.930908 1392.224609,1038.162842 1392.192505,1023.479431   C1392.148926,1003.497131 1392.190918,983.514709 1392.196167,963.532349   C1392.196655,961.715393 1392.196167,959.898438 1392.196167,957.689148   C1401.184692,957.689148 1409.882568,957.689148 1419.005127,957.689148   C1419.005127,963.309082 1419.006226,968.769470 1419.004761,974.229858   C1419.000610,990.881836 1419.035889,1007.533936 1418.974976,1024.185791   C1418.942017,1033.193359 1416.795532,1041.637573 1411.539917,1049.512817  z"/>
<path fill="#FF3D22" opacity="1.000000" stroke="none" d=" M802.715637,1055.285889   C771.338257,1026.799683 780.153564,973.809143 818.305786,959.700317   C845.672363,949.580017 875.712158,960.377380 887.290405,984.562683   C888.707947,987.523682 889.733093,990.672546 891.287415,994.615356   C881.346191,994.615356 872.126343,994.671692 862.909790,994.521301   C862.061829,994.507446 860.993530,993.325195 860.436096,992.430786   C853.906128,981.954956 844.041443,979.161987 832.727966,981.214233   C821.591492,983.234436 814.638855,990.777039 812.552917,1001.531799   C811.227417,1008.365967 811.258606,1015.879639 812.591187,1022.716370   C814.648010,1033.268188 821.475830,1040.716919 832.383179,1042.811768   C843.892395,1045.022095 853.874329,1042.222168 860.537048,1031.568970   C861.133606,1030.615112 862.520630,1029.585449 863.557678,1029.567139   C872.504517,1029.409668 881.455200,1029.476440 890.497070,1029.476440   C881.992859,1069.506470 830.333252,1078.423706 802.715637,1055.285889  z"/>
<path fill="#FF3D22" opacity="1.000000" stroke="none" d=" M1064.660034,957.295776   C1068.408325,956.705627 1070.117676,958.103699 1071.489746,961.205566   C1076.864990,973.357971 1082.553833,985.371887 1088.142700,997.429504   C1088.878906,999.017761 1089.710938,1000.561584 1090.896362,1002.915771   C1093.107422,998.211060 1095.017822,994.217590 1096.867432,990.196289   C1101.310181,980.537537 1105.809326,970.903076 1110.096558,961.175415   C1111.312500,958.416382 1112.735352,957.109985 1115.983521,957.210327   C1124.289673,957.466980 1132.609131,957.295776 1141.740479,957.295776   C1140.772949,959.348816 1140.085938,960.934875 1139.294189,962.466980   C1128.310059,983.724426 1117.236450,1004.936401 1106.406860,1026.272217   C1104.976074,1029.090942 1104.192871,1032.515869 1104.104736,1035.687622   C1103.819702,1045.959351 1103.998413,1056.243896 1103.998413,1066.762207   C1094.994995,1066.762207 1086.411377,1066.762207 1077.172852,1066.762207   C1077.172852,1056.946533 1077.479126,1047.172974 1077.031982,1037.434082   C1076.834961,1033.140747 1075.859131,1028.541382 1073.949219,1024.725464   C1063.686646,1004.221008 1053.017212,983.920166 1042.493042,963.546631   C1041.590088,961.798584 1040.720703,960.033264 1039.342041,957.295654   C1048.128662,957.295654 1056.166382,957.295654 1064.660034,957.295776  z"/>
<path fill="#FF3D22" opacity="1.000000" stroke="none" d=" M1002.058289,1063.824097   C1001.250916,1065.204834 1000.450378,1066.879883 999.637390,1066.885864   C980.038513,1067.031982 960.438293,1066.999756 940.576843,1066.999756   C940.576843,1030.349121 940.576843,994.148987 940.576843,957.622131   C949.343262,957.622131 957.900635,957.622131 967.027710,957.622131   C967.027710,987.072937 967.027710,1016.426636 967.027710,1046.195801   C978.835754,1046.195801 990.087036,1046.195801 1002.059265,1046.195801   C1002.059265,1052.181763 1002.059265,1057.761230 1002.058289,1063.824097  z"/>
<path fill="#FF4A30" opacity="1.000000" stroke="none" d=" M725.666382,804.999756   C725.666870,796.001648 725.586914,787.502075 725.749268,779.007080   C725.775146,777.647888 726.885864,776.309387 727.495117,774.961365   C728.276489,776.340149 729.219910,777.657104 729.778259,779.120972   C730.111267,779.993835 729.840088,781.097290 729.840088,782.097046   C729.840149,936.229248 729.849609,1090.361450 729.749390,1244.493652   C729.747864,1246.769775 728.381714,1249.045044 727.652527,1251.320801   C726.990356,1249.014404 725.750061,1246.708374 725.748596,1244.401611   C725.656982,1098.101074 725.666138,951.800415 725.666382,804.999756  z"/>
<path fill="none" opacity="1.000000" stroke="none" d=" M1523.622559,982.211304   C1529.162720,987.005432 1529.493042,992.832703 1527.534424,998.825745   C1525.611938,1004.708374 1520.526489,1006.480835 1514.918945,1006.695007   C1509.304932,1006.909363 1503.676392,1006.742126 1497.682251,1006.742126   C1497.682251,997.796814 1497.682251,989.088013 1497.682251,979.757507   C1506.211914,980.161072 1514.963989,977.863831 1523.622559,982.211304  z"/>
</svg>