<?xml version="1.0" encoding="UTF-8"?>
<svg version="1.1" xmlns="http://www.w3.org/2000/svg" width="2000" height="2000" viewBox="0 0 2000 2000">
<path d="M0 0 C4.59668805 3.26260004 6.99381337 6.12138848 9.51098633 11.24316406 C9.81261688 11.84700928 10.11424744 12.45085449 10.42501831 13.07299805 C11.40736968 15.04758344 12.36963168 17.0312499 13.33203125 19.015625 C14.01479917 20.39677632 14.69887686 21.77728085 15.38420105 23.15716553 C17.17653645 26.77408195 18.95222671 30.39891386 20.72412109 34.02587891 C22.88711694 38.44599827 25.06879205 42.8569184 27.24859905 47.2687645 C28.94232137 50.69734754 30.63290025 54.12736022 32.31416321 57.56207275 C32.62249588 58.19030945 32.93082855 58.81854614 33.24850464 59.46582031 C34.08137583 61.16312364 34.91237402 62.8613457 35.74324036 64.55963135 C36.7844168 66.88604983 36.7844168 66.88604983 38 68 C38.235979 67.45585449 38.47195801 66.91170898 38.71508789 66.35107422 C39.81228564 63.8504098 40.93703468 61.36306271 42.0625 58.875 C42.43310547 58.0190625 42.80371094 57.163125 43.18554688 56.28125 C43.56904297 55.44335938 43.95253906 54.60546875 44.34765625 53.7421875 C44.68804932 52.9776123 45.02844238 52.21303711 45.37915039 51.42529297 C49.80739562 44.79926674 55.81059861 41.84765221 63.15234375 39.3203125 C64.05686783 38.99407898 64.96139191 38.66784546 65.89332581 38.33172607 C68.90326458 37.24889509 71.92018017 36.18707155 74.9375 35.125 C79.33454056 33.55383954 83.72779771 31.97222092 88.12109375 30.390625 C89.2889743 29.97179047 90.45685486 29.55295593 91.66012573 29.12142944 C100.46620061 25.95097757 109.22368127 22.6637526 117.96627998 19.32252884 C120.15286387 18.487161 122.34021056 17.65382308 124.52781677 16.82113647 C125.97892039 16.26863684 127.43001599 15.71611613 128.88110352 15.16357422 C129.95405308 14.75502984 129.95405308 14.75502984 131.0486784 14.33823204 C134.62227942 12.97626948 138.19363222 11.60885746 141.76095581 10.23052979 C145.14773303 8.92216943 148.53961765 7.62799865 151.93552971 6.34354401 C153.78577477 5.63925554 155.63013557 4.91956846 157.47425842 4.19940186 C163.94114355 1.76587986 169.07897494 0.27344974 176 1 C178.87029869 2.79393668 180.49131638 3.98263276 182 7 C182.86720991 13.90116517 180.13726903 18.6903789 177.0625 24.75 C175.95425907 26.99470873 174.84619635 29.23950544 173.73828125 31.484375 C173.13001966 32.70522744 172.52145067 33.92592677 171.91259766 35.14648438 C169.9083871 39.17325363 167.94126974 43.21757421 165.98046875 47.265625 C165.63716522 47.97433746 165.29386169 48.68304993 164.94015503 49.41323853 C164.23479646 50.86970877 163.52952597 52.32622166 162.82434082 53.78277588 C161.01043142 57.52632131 159.19053145 61.26695169 157.37109375 65.0078125 C153.17984873 73.62776191 148.99434783 82.25048806 144.8125 90.875 C144.48108002 91.55846497 144.14966003 92.24192993 143.80819702 92.94610596 C138.64982898 103.58497462 133.50702723 114.23127436 128.37182617 124.88134766 C125.13502102 131.5902617 121.88759631 138.29387436 118.62890625 144.9921875 C118.25466019 145.76166718 117.88041412 146.53114685 117.49482727 147.32394409 C115.3367197 151.76075604 113.17625333 156.19640907 111.01423645 160.63131714 C110.01565762 162.68697517 109.02567041 164.74661816 108.03613281 166.80664062 C106.61210243 169.76452469 105.13975705 172.69323917 103.64355469 175.61523438 C102.88453372 177.13399871 102.12573811 178.65287569 101.3671875 180.171875 C101.00021759 180.86774719 100.63324768 181.56361938 100.25515747 182.28057861 C98.77877927 185.28030426 97.8273191 187.25936297 98.60185242 190.58137512 C100.53747348 195.31418187 102.79887499 199.85011643 105.10131836 204.41381836 C105.62038757 205.45064255 106.13945679 206.48746674 106.67425537 207.55570984 C108.39244993 210.98560713 110.11621228 214.41267593 111.83984375 217.83984375 C113.04415707 220.24219183 114.24811172 222.64471611 115.45155334 225.04750061 C118.30404332 230.74110377 121.16025529 236.43283012 124.01812035 242.12373692 C129.09954336 252.24246653 134.1768302 262.36326839 139.24955469 272.48636156 C141.30343277 276.584569 143.36097187 280.68092482 145.41941833 284.77684021 C151.17843812 296.25223592 156.85697398 307.75814955 162.35073757 319.36326504 C164.99735269 324.94835463 167.73445672 330.47549903 170.57421875 335.96484375 C171.26766842 337.31180248 171.96104048 338.65880116 172.65429688 340.00585938 C173.68464007 342.00412334 174.7199884 343.99913769 175.76831055 345.98803711 C176.82272995 347.99379089 177.85621817 350.00922031 178.88671875 352.02734375 C179.48701904 353.17968506 180.08731934 354.33202637 180.70581055 355.51928711 C182.28913206 359.77761853 182.37077032 362.48636385 182 367 C179.8755173 370.44312714 178.85147359 371.71617547 175 373 C168.75524491 373.54823571 164.1367631 371.89310169 158.43359375 369.66015625 C157.50263885 369.30665604 156.57168396 368.95315582 155.61251831 368.58894348 C152.55012548 367.42378986 149.49400078 366.24301322 146.4375 365.0625 C143.20382565 363.82835067 139.96860576 362.59830931 136.73338318 361.3682251 C134.50659004 360.52109478 132.28032823 359.67256658 130.05458069 358.82269287 C118.50724544 354.41596995 106.91295632 350.13947882 95.3125 345.875 C93.46470597 345.19554724 91.6169669 344.51594501 89.76928711 343.83618164 C88.88006058 343.50922806 87.99083405 343.18227448 87.07466125 342.84541321 C85.32537155 342.19940427 83.57752096 341.54948337 81.83122253 340.89543152 C77.31491156 339.20494013 72.7883991 337.58179438 68.21630859 336.04785156 C66.32519466 335.38867376 64.43408136 334.72949413 62.54296875 334.0703125 C61.67376297 333.79452362 60.80455719 333.51873474 59.90901184 333.23458862 C53.15916502 330.83120983 50.34641238 327.22116682 47 321 C46.37351562 319.86691406 45.74703125 318.73382812 45.1015625 317.56640625 C44.61429688 316.57511719 44.12703125 315.58382813 43.625 314.5625 C43.12226562 313.55316406 42.61953125 312.54382812 42.1015625 311.50390625 C41 309 41 309 41 307 C40.34 307 39.68 307 39 307 C38.82476807 308.08498779 38.82476807 308.08498779 38.64599609 309.19189453 C37.98160687 312.07995382 37.01471285 314.29813391 35.6640625 316.9296875 C35.18211426 317.87875977 34.70016602 318.82783203 34.20361328 319.80566406 C33.42219971 321.32498535 33.42219971 321.32498535 32.625 322.875 C31.52951868 325.03297615 30.43581301 327.19185448 29.34375 329.3515625 C28.786875 330.45274414 28.23 331.55392578 27.65625 332.68847656 C25.07797545 337.84350546 22.59837232 343.04403354 20.125 348.25 C19.66738281 349.20729004 19.20976562 350.16458008 18.73828125 351.15087891 C16.85505572 355.09060328 14.97990381 359.03232076 13.15625 363 C12.39828125 364.60875 12.39828125 364.60875 11.625 366.25 C11.22539062 367.12140625 10.82578125 367.9928125 10.4140625 368.890625 C8.62994611 371.5520141 6.8673526 372.61455134 4 374 C0.5 374.5 0.5 374.5 -3 374 C-7.54257547 370.23761005 -9.94930226 365.9119189 -12.5625 360.75 C-12.98523193 359.93152588 -13.40796387 359.11305176 -13.84350586 358.26977539 C-18.43707272 349.29709157 -22.75470267 340.18902614 -27.08203125 331.0859375 C-30.0905945 324.77402957 -33.21448845 318.52346073 -36.41040039 312.30444336 C-39 307.21194813 -39 307.21194813 -39 305 C-39.66 305 -40.32 305 -41 305 C-41.25265625 305.82242187 -41.5053125 306.64484375 -41.765625 307.4921875 C-43.18172959 311.51643407 -44.88689205 315.29211762 -46.75 319.125 C-47.07226562 319.82753906 -47.39453125 320.53007813 -47.7265625 321.25390625 C-48.05914062 321.93582031 -48.39171875 322.61773438 -48.734375 323.3203125 C-49.17088379 324.23707764 -49.17088379 324.23707764 -49.61621094 325.17236328 C-53.86240135 330.78051102 -60.911492 332.661489 -67.2734375 334.9140625 C-68.28962158 335.28154602 -69.30580566 335.64902954 -70.3527832 336.02764893 C-72.54651164 336.82018782 -74.74152763 337.60917003 -76.93768311 338.3949585 C-82.79762817 340.49193584 -88.64821964 342.6147437 -94.5 344.734375 C-95.69998627 345.16825531 -96.89997253 345.60213562 -98.13632202 346.04916382 C-111.59844082 350.92434508 -124.99869125 355.96189252 -138.39520264 361.01397705 C-143.81733838 363.05876505 -149.24161386 365.0975085 -154.67028809 367.12487793 C-156.85226801 367.94450665 -159.02848375 368.77792354 -161.20410156 369.61425781 C-162.42838867 370.07413086 -163.65267578 370.53400391 -164.9140625 371.0078125 C-165.93709473 371.39855957 -166.96012695 371.78930664 -168.01416016 372.19189453 C-173.13088166 373.5767145 -176.75883152 373.67700099 -181.4375 371.125 C-183.79532919 368.81828906 -184.56015049 366.96303965 -184.875 363.6875 C-184.47622183 358.92717091 -182.84615582 355.24359352 -180.6484375 351.078125 C-179.91503981 349.64991678 -179.18285138 348.22108716 -178.45166016 346.79174805 C-178.05585754 346.02204681 -177.66005493 345.25234558 -177.2522583 344.45932007 C-174.98667111 340.00991531 -172.8019156 335.52088125 -170.609375 331.03515625 C-169.9029184 329.59262733 -169.9029184 329.59262733 -169.18218994 328.12095642 C-167.70384191 325.10193552 -166.22680081 322.08227802 -164.75 319.0625 C-164.23910828 318.01831909 -163.72821655 316.97413818 -163.20184326 315.89831543 C-157.18612113 303.60133666 -151.18656953 291.29787704 -145.28515625 278.94555664 C-141.14332575 270.27919409 -136.9494791 261.63852736 -132.75 253 C-132.02636166 251.51107039 -131.30272885 250.0221381 -130.57910156 248.53320312 C-128.01793542 243.26384572 -125.45622479 237.99475305 -122.89416504 232.72583008 C-120.72787541 228.27062613 -118.56271194 223.8148781 -116.39904785 219.35839844 C-115.73110827 217.98318655 -115.06275225 216.60817683 -114.3939209 215.23339844 C-112.85699371 212.07414829 -111.32563177 208.91252561 -109.80761719 205.74414062 C-108.55084043 203.12333294 -107.25916793 200.52283702 -105.95019531 197.92773438 C-105.29197566 196.59261649 -104.63408749 195.25733513 -103.9765625 193.921875 C-103.66270599 193.3154718 -103.34884949 192.7090686 -103.02548218 192.08428955 C-100.98289585 187.87696157 -100.95333567 185.49046907 -102 181 C-103.08658786 178.26278578 -103.08658786 178.26278578 -104.50927734 175.54321289 C-105.03427826 174.49674088 -105.55927917 173.45026886 -106.10018921 172.37208557 C-106.95938461 170.68936806 -106.95938461 170.68936806 -107.8359375 168.97265625 C-108.4366919 167.78118457 -109.036662 166.58931715 -109.63589478 165.39707947 C-111.21943023 162.25091757 -112.81211313 159.10948178 -114.40722656 155.96917725 C-116.91631674 151.0258455 -119.41202908 146.0757316 -121.9078083 141.12566948 C-122.53113272 139.88959498 -123.15479871 138.65369267 -123.77879143 137.4179554 C-127.61299915 129.82216514 -131.36793472 122.19649727 -134.99609375 114.5 C-139.9003315 104.11958932 -145.05816743 93.87193872 -150.23114777 83.62354851 C-151.69903649 80.71520486 -153.16527204 77.80603344 -154.63104248 74.8966217 C-160.70783977 62.83649343 -160.70783977 62.83649343 -166.80541992 50.78686523 C-169.3247674 45.81832813 -171.83241142 40.84404051 -174.33231544 35.86569405 C-175.2797095 33.98446417 -176.23142398 32.10540341 -177.18759727 30.22862053 C-178.51468883 27.62261093 -179.82671614 25.00952866 -181.13549805 22.39428711 C-181.52964905 21.62912781 -181.92380005 20.86396851 -182.32989502 20.07562256 C-184.40233933 15.89094437 -185.58457874 12.78273903 -185 8 C-183.33237678 4.50593231 -182.25993978 3.17329319 -179 1 C-173.15448176 0.43525504 -168.74177784 1.83803151 -163.37890625 3.8671875 C-162.54252121 4.17342545 -161.70613617 4.47966339 -160.84440613 4.79518127 C-158.07959362 5.81083992 -155.32114227 6.84271192 -152.5625 7.875 C-150.61457708 8.59469609 -148.66632841 9.31351108 -146.71777344 10.03149414 C-140.47230068 12.3377618 -134.23594511 14.66812052 -128 17 C-125.87424149 17.79327969 -123.74842771 18.58641129 -121.62255859 19.37939453 C-113.39416698 22.4501556 -105.16795017 25.52666198 -96.94750977 28.61865234 C-96.00984268 28.97125122 -95.0721756 29.3238501 -94.10609436 29.68713379 C-92.24671586 30.38804288 -90.38824971 31.09137747 -88.53074646 31.79724121 C-83.51347546 33.69999725 -78.48213544 35.54460323 -73.41992188 37.32470703 C-72.32963684 37.71497574 -71.23935181 38.10524445 -70.11602783 38.50733948 C-68.02106409 39.25611706 -65.9209342 39.99064956 -63.81512451 40.70835876 C-56.14940197 43.47437676 -52.36444929 46.6362235 -48.76171875 54.0859375 C-48.44936279 54.72063965 -48.13700684 55.3553418 -47.81518555 56.00927734 C-47.2569812 57.18031006 -47.2569812 57.18031006 -46.6875 58.375 C-46.03027828 59.73546649 -45.3724417 61.09563605 -44.71411133 62.45556641 C-44.14845459 63.62522949 -43.58279785 64.79489258 -43 66 C-35.61183519 52.18125024 -28.64686646 38.19855042 -21.87011719 24.0715332 C-20.64891346 21.52894516 -19.42235696 18.98899197 -18.1953125 16.44921875 C-17.83172638 15.6867131 -17.46814026 14.92420746 -17.09353638 14.13859558 C-9.69772858 -1.15057797 -9.69772858 -1.15057797 0 0 Z " fill="#191919" transform="translate(486,813)"/>
<path d="M0 0 C14.045625 -0.0928125 14.045625 -0.0928125 28.375 -0.1875 C32.78045166 -0.22846802 32.78045166 -0.22846802 37.27490234 -0.27026367 C39.62857656 -0.27903366 41.98225536 -0.28667638 44.3359375 -0.29296875 C45.53710205 -0.30831665 46.7382666 -0.32366455 47.97583008 -0.33947754 C60.1990776 -0.34324472 70.80727883 2.48116667 80.04296875 10.8515625 C81.87537192 12.81289809 83.45641091 14.80540118 85 17 C85.65162109 17.91265625 85.65162109 17.91265625 86.31640625 18.84375 C90.93803464 26.95978034 90.39731753 39.07317565 88.3046875 47.94921875 C87.38425915 50.16520801 86.34484102 52.01635949 85 54 C84.5875 54.6909375 84.175 55.381875 83.75 56.09375 C79.64172864 62.34952684 73.53806947 66.93333277 66.19140625 68.66015625 C65.46824219 68.77230469 64.74507812 68.88445312 64 69 C64.55945312 69.94875 65.11890625 70.8975 65.6953125 71.875 C67.92193925 75.65346084 70.14354974 79.43485504 72.36425781 83.21679688 C73.5133583 85.17198277 74.66387456 87.12633694 75.81542969 89.08007812 C77.71362436 92.30143477 79.60713125 95.52551155 81.5 98.75 C82.11117676 99.78511719 82.72235352 100.82023437 83.35205078 101.88671875 C83.92681152 102.86769531 84.50157227 103.84867188 85.09375 104.859375 C85.60615234 105.73045898 86.11855469 106.60154297 86.64648438 107.49902344 C87.97167695 109.9476657 89.02178729 112.39571294 90 115 C85.69538574 115.24835783 81.39461433 115.42912304 77.08496094 115.54931641 C75.62165702 115.59942955 74.15884969 115.66755153 72.69726562 115.75439453 C60.69088153 116.44958707 60.69088153 116.44958707 56.95898438 113.25024414 C55.33854332 110.58230369 54.19281247 107.88469083 53 105 C51.68315809 102.60242089 50.34624615 100.22673041 48.984375 97.85546875 C48.28114405 96.59069577 47.58064662 95.32439927 46.8828125 94.05664062 C45.449479 91.45534471 44.01167796 88.85661926 42.5703125 86.25976562 C41.87469162 85.00017025 41.17936823 83.74041054 40.484375 82.48046875 C39.55189941 80.79280396 39.55189941 80.79280396 38.60058594 79.07104492 C37.21725548 76.41684818 36.04580926 73.80090177 35 71 C32.69 71 30.38 71 28 71 C28 85.52 28 100.04 28 115 C18.76 115 9.52 115 0 115 C0 77.05 0 39.1 0 0 Z " fill="#1A1A1A" transform="translate(1564,941)"/>
<path d="M0 0 C9.24 0 18.48 0 28 0 C28.33 15.84 28.66 31.68 29 48 C36.8030821 37.96746587 44.56232194 27.96710095 52.16015625 17.7890625 C54.97410933 14.02485538 57.82258767 10.28802867 60.6875 6.5625 C61.10999023 6.01231201 61.53248047 5.46212402 61.96777344 4.89526367 C64.87165375 1.12834625 64.87165375 1.12834625 66 0 C68.3756852 -0.0883967 70.72208674 -0.11530305 73.09765625 -0.09765625 C74.16094398 -0.09553383 74.16094398 -0.09553383 75.24571228 -0.09336853 C77.51801712 -0.08775443 79.79022475 -0.07519963 82.0625 -0.0625 C83.59960796 -0.05748681 85.13671745 -0.05292359 86.67382812 -0.04882812 C90.44925642 -0.03778042 94.22461171 -0.02050641 98 0 C96.70844815 2.7349848 95.28712231 5.10899635 93.453125 7.51171875 C92.94499268 8.17848633 92.43686035 8.84525391 91.91333008 9.53222656 C91.36443115 10.2434668 90.81553223 10.95470703 90.25 11.6875 C89.67725342 12.43354492 89.10450684 13.17958984 88.5144043 13.94824219 C83.81643363 20.02864378 78.95781098 25.96588605 74.04663086 31.87451172 C68.86128707 38.1249571 63.88959427 44.51576398 59 51 C58.39542969 51.69480469 57.79085938 52.38960937 57.16796875 53.10546875 C55.78071333 54.90531365 55.78071333 54.90531365 56.26513672 56.90380859 C57.07025386 59.20039855 58.02909027 60.57469803 59.58984375 62.43359375 C60.38769287 63.39676514 60.38769287 63.39676514 61.20166016 64.37939453 C61.7744873 65.05856934 62.34731445 65.73774414 62.9375 66.4375 C64.13286705 67.88038759 65.32686295 69.32441213 66.51953125 70.76953125 C67.40825928 71.84388428 67.40825928 71.84388428 68.31494141 72.93994141 C71.48455448 76.81493345 74.49942358 80.80475474 77.53515625 84.78515625 C80.17370411 88.24047346 82.86775106 91.65095812 85.5625 95.0625 C89.14862339 99.61262822 92.69874579 104.18718875 96.1875 108.8125 C96.92355469 109.78832031 97.65960937 110.76414062 98.41796875 111.76953125 C100 114 100 114 100 115 C71.24183891 117.83367429 71.24183891 117.83367429 63.20898438 113.49121094 C58.80839019 109.54975734 56.05244223 104.65533252 53.34619141 99.45849609 C51.23311754 95.59947292 48.52971085 92.25888862 45.8125 88.8125 C40.12075979 81.27496381 34.58422622 73.61485394 29 66 C28.67 82.17 28.34 98.34 28 115 C18.76 115 9.52 115 0 115 C0 77.05 0 39.1 0 0 Z " fill="#1B1B1B" transform="translate(1265,941)"/>
<path d="M0 0 C9.24 0 18.48 0 28 0 C28.0093457 2.18931152 28.01869141 4.37862305 28.02832031 6.63427734 C28.06221204 13.89871472 28.11782812 21.16287167 28.18390274 28.42708397 C28.2232739 32.82786848 28.25551283 37.228456 28.27099609 41.62939453 C28.28623143 45.88311083 28.32079729 50.13628519 28.36830902 54.38975906 C28.38305236 56.00585828 28.39103694 57.6220349 28.39188385 59.23820114 C28.13893798 73.54574866 28.13893798 73.54574866 34.69342041 85.75131226 C39.67786075 89.82311751 45.46228164 89.52372132 51.6328125 89.46875 C56.87437247 88.73906648 60.07148952 86.94961299 63.75 83.1875 C67.57144942 77.77377999 68.25178427 73.07573664 68.31884766 66.52587891 C68.32889328 65.80323853 68.3389389 65.08059814 68.34928894 64.33605957 C68.37998518 61.96623472 68.3971179 59.59652214 68.4140625 57.2265625 C68.4327851 55.5760299 68.45235932 53.92550676 68.4727478 52.2749939 C68.52395978 47.94486075 68.56364382 43.61469661 68.60089111 39.28442383 C68.64099952 34.86011151 68.6920606 30.4359269 68.7421875 26.01171875 C68.83881731 17.34122686 68.92225021 8.67068176 69 0 C78.24 0 87.48 0 97 0 C97.09091367 9.51971047 97.16406584 19.03912552 97.20724869 28.55917454 C97.22799001 32.98126614 97.25605651 37.4030415 97.30175781 41.82495117 C97.3457023 46.10439532 97.36923782 50.38353821 97.37950897 54.66319084 C97.38681428 56.28362702 97.40107541 57.90404954 97.42292023 59.52435493 C97.63219636 75.71325164 95.5207163 90.5885722 84.12109375 103.0546875 C72.94720705 113.57394246 58.51948073 116.52297541 43.6015625 116.42163086 C32.2500889 116.0554153 21.46775872 111.86140634 13 104.1875 C0.98205009 91.34072596 -0.45560277 75.83364286 -0.29296875 59.08203125 C-0.28736211 57.37139765 -0.28309707 55.66075919 -0.28010559 53.95011902 C-0.26874079 49.48341183 -0.23934734 45.01700492 -0.20599365 40.55041504 C-0.17511071 35.97831278 -0.1615616 31.40616123 -0.14648438 26.83398438 C-0.11446814 17.88917086 -0.06177031 8.94465757 0 0 Z " fill="#1B1B1B" transform="translate(1413,941)"/>
<path d="M0 0 C0.94166016 -0.00773438 1.88332031 -0.01546875 2.85351562 -0.0234375 C18.09310642 0.01898307 31.1082152 5.81095983 42.05859375 16.27734375 C48.52517515 23.03730502 53.22928574 31.00097633 54.9375 40.25 C50.65111767 40.47386695 46.36789318 40.63639029 42.07739258 40.74438477 C40.62106026 40.78942597 39.16513006 40.85068743 37.71020508 40.92895508 C25.55421687 41.56611376 25.55421687 41.56611376 21.55957031 38.31420898 C19.85478419 36.03089753 18.40837812 33.68708865 16.9375 31.25 C10.73634745 26.60373585 3.70115258 25.42998956 -3.91796875 25.7734375 C-11.80282682 26.96840978 -17.69324377 30.81123558 -22.58984375 37.0390625 C-28.96802787 46.61479782 -29.17242818 56.38877314 -27.58984375 67.59765625 C-25.7726904 76.20465205 -22.36099851 82.32144511 -14.9375 87.1875 C-7.62287655 91.52045968 2.26590896 91.57188264 10.41796875 89.671875 C14.62992905 87.82231159 16.58451904 85.34281704 19.19140625 81.625 C21.90218637 78.5247777 23.3270343 77.37931514 27.39624023 76.51733398 C31.44646809 76.36487458 35.39546947 76.46109693 39.4375 76.6875 C40.84622555 76.73271795 42.25509132 76.77376978 43.6640625 76.81054688 C47.09215165 76.91620716 50.51299729 77.06381653 53.9375 77.25 C52.14590525 89.01096906 45.78413629 99.00576795 36.3671875 106.21875 C30.2424061 110.33683664 23.98006361 113.10262873 16.9375 115.25 C15.86371094 115.60835937 14.78992188 115.96671875 13.68359375 116.3359375 C9.27897812 117.41068208 5.26425807 117.59430015 0.75 117.5625 C-0.08861572 117.55686035 -0.92723145 117.5512207 -1.79125977 117.54541016 C-16.86470577 117.25238387 -29.89487712 112.10555436 -40.81640625 101.5859375 C-55.19438786 86.63283663 -57.66740083 70.81314438 -57.3984375 50.7109375 C-56.88795699 36.04200588 -49.89646364 23.6045057 -39.4375 13.4375 C-27.77999722 3.55826035 -15.0021147 -0.12372878 0 0 Z " fill="#1B1B1B" transform="translate(900.0625,939.75)"/>
<path d="M0 0 C10.56 0 21.12 0 32 0 C40.07934732 16.15869464 40.07934732 16.15869464 42.74609375 22.078125 C43.04693375 22.74164978 43.34777374 23.40517456 43.6577301 24.08880615 C44.2763892 25.45554603 44.89367204 26.82290977 45.50952148 28.19091797 C46.45655401 30.29227875 47.41071033 32.39031442 48.36523438 34.48828125 C48.97177773 35.83053785 49.57791391 37.17297853 50.18359375 38.515625 C50.72556396 39.71477539 51.26753418 40.91392578 51.82592773 42.14941406 C53 45 53 45 53 47 C53.66 47 54.32 47 55 47 C55.3403125 45.84886719 55.680625 44.69773437 56.03125 43.51171875 C58.53317841 36.01033832 62.11053882 28.94258275 65.5 21.8125 C66.18404269 20.36284196 66.86763977 18.91297357 67.55078125 17.46289062 C70.31210021 11.61234398 73.10634345 5.7873131 76 0 C86.23 0 96.46 0 107 0 C105.44619434 4.66141697 103.85396903 8.47380498 101.61328125 12.78515625 C101.27920258 13.43102188 100.9451239 14.07688751 100.60092163 14.74232483 C99.50888001 16.85120478 98.41077097 18.95685849 97.3125 21.0625 C96.55078997 22.53022962 95.78948307 23.99816852 95.02856445 25.46630859 C93.46409792 28.48363939 91.89737071 31.49978074 90.32910156 34.51513672 C88.10290634 38.79806983 85.88945214 43.08747787 83.6796875 47.37890625 C82.67070423 49.3367931 81.66158708 51.29461089 80.6524353 53.25241089 C80.01556586 54.48834327 79.37902337 55.72444419 78.74282837 56.96072388 C77.85479488 58.68552811 76.964547 60.40919168 76.07421875 62.1328125 C75.32531372 63.58518311 75.32531372 63.58518311 74.5612793 65.06689453 C73 68 73 68 70.84594727 71.27709961 C68.39686266 75.55345875 68.39771019 79.59635394 68.390625 84.43359375 C68.37408875 85.31153091 68.35755249 86.18946808 68.34051514 87.0940094 C68.29225275 89.87524564 68.27071301 92.65593599 68.25 95.4375 C68.22182206 97.33270943 68.19189209 99.22789368 68.16015625 101.12304688 C68.08322667 105.74894373 68.04250667 110.37314896 68 115 C58.76 115 49.52 115 40 115 C40.06703125 112.45152344 40.1340625 109.90304687 40.203125 107.27734375 C40.50368537 87.74024098 39.86810432 72.84924253 28.92285156 56.10839844 C25.403113 50.41854173 22.4878285 44.40468891 19.47872925 38.43377686 C17.68150515 34.87788993 15.8543234 31.33754052 14.02734375 27.796875 C13.68020828 27.12300751 13.33307281 26.44914001 12.97541809 25.75485229 C9.59539434 19.19956034 6.16445164 12.67128192 2.69091797 6.16503906 C0 1.10301067 0 1.10301067 0 0 Z " fill="#1B1B1B" transform="translate(1111,941)"/>
<path d="M0 0 C9.24 0 18.48 0 28 0 C28 30.69 28 61.38 28 93 C40.21 93 52.42 93 65 93 C65 100.26 65 107.52 65 115 C43.55 115 22.1 115 0 115 C0 77.05 0 39.1 0 0 Z " fill="#1A1A1A" transform="translate(1007,941)"/>
<path d="M0 0 C0.99 0 1.98 0 3 0 C3 165 3 330 3 500 C1.68 499.67 0.36 499.34 -1 499 C-1.01710972 451.53633199 -1.03303145 404.07266376 -1.04234314 356.60899353 C-1.0424812 355.90708229 -1.04261925 355.20517105 -1.04276149 354.48198978 C-1.04575405 339.2294248 -1.04852428 323.97685979 -1.05106533 308.72429473 C-1.05231272 301.24498879 -1.05360927 293.76568287 -1.05493164 286.28637695 C-1.0550624 285.54207605 -1.05519316 284.79777515 -1.05532788 284.03091967 C-1.05959308 259.88400711 -1.06710725 235.73709687 -1.07629722 211.59018571 C-1.08572003 186.78656963 -1.09188317 161.98295484 -1.09391499 137.179337 C-1.09420317 133.68006354 -1.0945288 130.18079009 -1.09487724 126.68151665 C-1.09494467 125.99277513 -1.09501209 125.30403361 -1.09508156 124.59442114 C-1.0962656 113.48497052 -1.10090991 102.37552387 -1.10683203 91.26607487 C-1.1127052 80.11103103 -1.11489027 68.95599107 -1.11350138 57.80094535 C-1.11285766 51.75134585 -1.11387929 45.70175808 -1.11920547 39.65216064 C-1.12403765 34.12365525 -1.12433986 28.59516958 -1.12089889 23.06666332 C-1.12047302 21.05723715 -1.12177028 19.0478098 -1.12488318 17.03838599 C-1.12884412 14.32573199 -1.1267653 11.61315106 -1.12304783 8.90049839 C-1.12567484 8.10416137 -1.12830186 7.30782436 -1.13100848 6.48735592 C-1.1141458 1.1141458 -1.1141458 1.1141458 0 0 Z " fill="#2E2E2E" transform="translate(747,750)"/>
<path d="M0 0 C3.465 -0.0825 6.93 -0.165 10.5 -0.25 C12.11358398 -0.30462402 12.11358398 -0.30462402 13.75976562 -0.36035156 C20.04581957 -0.43225845 24.78250585 0.34395174 30 4 C33.27143282 7.57812964 33.47547873 11.0523954 33.2734375 15.72265625 C32.83220393 19.39750158 31.97225304 21.85672172 30 25 C24.02406066 29.566216 17.71876083 29.49437387 10.5 29.25 C7.035 29.1675 3.57 29.085 0 29 C0 19.43 0 9.86 0 0 Z " fill="#F9F9F9" transform="translate(1592,964)"/>
</svg>
