<?xml version="1.0" encoding="UTF-8"?>
<svg version="1.1" xmlns="http://www.w3.org/2000/svg" width="2000" height="2000" viewBox="0 0 2000 2000">
  <!-- Transparent background; only the C logo (no white) -->
  <path d="M0 0 C4.58699659 3.27612316 6.99273045 6.11918502 9.51098633 11.24316406 C9.81261688 11.84700928 10.11424744 12.45085449 10.42501831 13.07299805 C11.40736968 15.04758344 12.36963168 17.0312499 13.33203125 19.015625 C14.01479917 20.39677632 14.69887686 21.77728085 15.38420105 23.15716553 C17.17653645 26.77408195 18.95222671 30.39891386 20.72412109 34.02587891 C22.88711694 38.44599827 25.06879205 42.8569184 27.24859905 47.2687645 C28.94232137 50.69734754 30.63290025 54.12736022 32.31416321 57.56207275 C32.62249588 58.19030945 32.93082855 58.81854614 33.24850464 59.46582031 C34.08137583 61.16312364 34.91237402 62.8613457 35.74324036 64.55963135 C36.7844168 66.88604983 36.7844168 66.88604983 38 68 C38.40726318 67.13048706 38.40726318 67.13048706 38.82275391 66.2434082 C40.07503385 63.59231619 41.34971421 60.95259737 42.625 58.3125 C43.05167969 57.40048828 43.47835938 56.48847656 43.91796875 55.54882812 C44.34980469 54.66259766 44.78164062 53.77636719 45.2265625 52.86328125 C45.61408691 52.05157471 46.00161133 51.23986816 46.40087891 50.40356445 C50.48219384 44.26913003 55.80946851 41.94568858 62.5234375 39.64453125 C63.36132812 39.34532272 64.19921875 39.0461142 65.0625 38.73783875 C66.87818173 38.09079486 68.69587335 37.44936904 70.51531982 36.81298828 C75.45670622 35.08419384 80.38329468 33.31393912 85.3125 31.55078125 C86.34369965 31.18328766 87.37489929 30.81579407 88.43734741 30.43716431 C100.13391492 26.25997187 111.75488027 21.88444279 123.375 17.5 C129.97369521 15.01060546 136.57478285 12.52803992 143.18151855 10.06005859 C146.13287574 8.95002413 149.07656009 7.8209296 152.02050781 6.69140625 C153.98482807 5.9499961 155.94934015 5.20909394 157.9140625 4.46875 C158.80910492 4.11993774 159.70414734 3.77112549 160.62631226 3.41174316 C166.00307144 1.40628188 170.25408941 0.45991441 176 1 C178.8100346 2.79363911 180.50940468 4.01880935 182 7 C182.33163543 12.04305432 181.742098 15.41908561 179.578125 19.96484375 C179.05331543 21.08221924 178.52850586 22.19959473 177.98779297 23.35083008 C177.41432129 24.53443115 176.84084961 25.71803223 176.25 26.9375 C175.65550199 28.18796259 175.06192774 29.43886473 174.46923828 30.69018555 C169.74632971 40.61927151 164.82427444 50.44983607 159.87109375 60.265625 C157.15445676 65.66449971 154.53020112 71.10321739 151.9375 76.5625 C146.88348129 87.20159276 141.7285975 97.78998929 136.5625 108.375 C127.980722 125.9518436 127.980722 125.9518436 119.52709961 143.59057617 C116.95735746 148.99024742 114.32840597 154.35477025 111.63168335 159.69192505 C110.01765386 162.89103629 108.41866723 166.09756942 106.82037354 169.30456543 C106.02954795 170.88104808 105.23158777 172.45397382 104.4262085 174.02307129 C103.2997824 176.21898752 102.19854155 178.42597924 101.1015625 180.63671875 C100.7575238 181.29187973 100.41348511 181.94704071 100.059021 182.62205505 C98.56625424 185.68699158 97.85388391 187.43386215 98.71938229 190.78730106 C100.09974052 194.25022007 101.66134841 197.57936814 103.34681702 200.90049744 C103.85059888 201.9053327 103.85059888 201.9053327 104.36455816 202.93046767 C105.48542626 205.16382284 106.61199059 207.39425438 107.73852539 209.62475586 C108.54544352 211.22983821 109.35197775 212.8351136 110.15815735 214.44056702 C111.89226738 217.89231992 113.62874081 221.34286971 115.36696053 224.79255486 C118.11581153 230.2488473 120.85724264 235.70884564 123.59727478 241.16957092 C131.38898019 256.69543721 139.18868795 272.21726566 147.00024414 287.7331543 C151.31640955 296.30639879 155.62539636 304.88321177 159.92654985 313.4639979 C162.64786349 318.89199186 165.3779791 324.31543592 168.11466038 329.73569667 C169.81568897 333.10999654 171.50830278 336.48846383 173.19856071 339.86816978 C173.98315834 341.43280012 174.77119116 342.99571335 175.56292725 344.55674362 C176.64467275 346.69080273 177.71383359 348.83072685 178.78016663 350.97251892 C179.25233764 351.89296829 179.25233764 351.89296829 179.73404747 352.83201259 C181.72472141 356.87398403 182.7391154 360.49847983 183 365 C181.02061533 368.74669241 179.52983947 370.64677369 176 373 C168.66143081 373.82828095 163.11409261 371.47231099 156.375 368.75 C153.80063879 367.74168563 151.22520575 366.73648924 148.6484375 365.734375 C147.56789093 365.31206604 147.56789093 365.31206604 146.46551514 364.88122559 C136.21860462 360.89081492 125.88847106 357.12111125 115.57128906 353.31719971 C99.48776351 347.38510774 83.40742971 341.44405857 67.375 335.375 C66.23417969 334.94445313 65.09335938 334.51390625 63.91796875 334.0703125 C62.90089844 333.68359375 61.88382813 333.296875 60.8359375 332.8984375 C59.98563965 332.57536621 59.1353418 332.25229492 58.25927734 331.91943359 C57.51371582 331.61602051 56.7681543 331.31260742 56 331 C55.29794434 330.72961914 54.59588867 330.45923828 53.87255859 330.18066406 C51.34305812 328.58579258 50.54732188 326.86732658 49.203125 324.2109375 C48.71972656 323.26992187 48.23632812 322.32890625 47.73828125 321.359375 C47.24714844 320.37453125 46.75601562 319.3896875 46.25 318.375 C45.49009766 316.88613281 45.49009766 316.88613281 44.71484375 315.3671875 C43.4659784 312.9165838 42.22826873 310.46097393 41 308 C37.74600576 311.84957694 35.77990851 316.28786256 33.61328125 320.796875 C33.19257858 321.66330627 32.77187592 322.52973755 32.33842468 323.42242432 C30.992431 326.19635648 29.65224251 328.97304407 28.3125 331.75 C25.28723606 338.00061882 22.2561018 344.24836059 19.21734619 350.49243164 C18.41975196 352.13536779 17.62500677 353.77969083 16.83343506 355.42553711 C15.76488298 357.6467664 14.68638262 359.86289137 13.60546875 362.078125 C13.29716629 362.72585876 12.98886383 363.37359253 12.67121887 364.04095459 C10.55861478 368.33524388 8.36488698 371.81755651 4 374 C0.6875 374.375 0.6875 374.375 -3 374 C-6.90101234 370.69524487 -9.14935251 367.31220688 -11.39746094 362.75683594 C-11.69894547 362.15299072 -12.00042999 361.54914551 -12.31105042 360.92700195 C-13.2949638 358.95066542 -14.26462127 356.96769218 -15.234375 354.984375 C-15.91892464 353.60339702 -16.60442546 352.22289017 -17.29083252 350.84283447 C-19.08781304 347.22421661 -20.87303475 343.5999278 -22.65545654 339.97412109 C-25.17755192 334.84920303 -27.71575586 329.73223793 -30.25201416 324.61431885 C-31.60160775 321.89085347 -32.94678633 319.16527618 -34.28851318 316.43792725 C-34.89903695 315.20047477 -35.50957105 313.96302738 -36.12011719 312.72558594 C-36.65352722 311.64146423 -37.18693726 310.55734253 -37.73651123 309.44036865 C-38.78450887 307.11454945 -38.78450887 307.11454945 -40 306 C-40.28198242 306.58491211 -40.56396484 307.16982422 -40.85449219 307.77246094 C-42.14446528 310.43586976 -43.44707238 313.09290604 -44.75 315.75 C-45.1934375 316.67039062 -45.636875 317.59078125 -46.09375 318.5390625 C-46.53203125 319.42851563 -46.9703125 320.31796875 -47.421875 321.234375 C-47.81987305 322.05131836 -48.21787109 322.86826172 -48.62792969 323.70996094 C-52.08605975 329.48171538 -56.21987638 331.15171201 -62.328125 333.2578125 C-63.16875488 333.55839066 -64.00938477 333.85896881 -64.87548828 334.1686554 C-66.7032335 334.82104897 -68.53278417 335.46840139 -70.3638916 336.11129761 C-75.33418641 337.85703929 -80.29097553 339.64052137 -85.25 341.41796875 C-86.28779602 341.78876053 -87.32559204 342.15955231 -88.39483643 342.5415802 C-100.05931675 346.71729865 -111.65592382 351.0708788 -123.25 355.4375 C-125.18389727 356.16493479 -127.11781605 356.89231241 -129.05175781 357.61962891 C-130.4580545 358.14904083 -130.4580545 358.14904083 -131.89276123 358.68914795 C-133.7532666 359.38886282 -135.6143034 360.08716639 -137.47589111 360.78399658 C-142.49071792 362.66399315 -147.48933813 364.57849625 -152.47460938 366.53564453 C-153.55135925 366.95298355 -154.62810913 367.37032257 -155.73748779 367.80030823 C-157.80296415 368.60126277 -159.864507 369.41246513 -161.92120361 370.23570251 C-167.54769342 372.40257831 -171.96152632 373.63129498 -178 373 C-180.8100346 371.20636089 -182.50940468 369.98119065 -184 367 C-184.67572904 359.94842471 -182.79802153 355.46861642 -179.609375 349.25390625 C-178.92578163 347.87450615 -178.92578163 347.87450615 -178.2283783 346.46723938 C-176.74993894 343.491584 -175.2500606 340.5273053 -173.75 337.5625 C-172.7233263 335.50426008 -171.69834858 333.44517334 -170.67504883 331.38525391 C-168.67391402 327.35962264 -166.66625505 323.33736957 -164.65283203 319.31787109 C-161.59490175 313.20268151 -158.62142428 307.05069645 -155.6875 300.875 C-151.08147561 291.23051153 -146.42291974 281.61219459 -141.75 272 C-141.38944519 271.25826538 -141.02889038 270.51653076 -140.65740967 269.75231934 C-139.19500847 266.74392784 -137.73253004 263.73557393 -136.26989746 260.72729492 C-132.44609256 252.86212893 -128.62814259 244.99412857 -124.8125 237.125 C-124.48573273 236.45117279 -124.15896545 235.77734558 -123.82229614 235.08309937 C-120.20584236 227.62489938 -116.59443971 220.1642893 -112.9921875 212.69921875 C-112.66919174 212.02987305 -112.34619598 211.36052734 -112.01341248 210.67089844 C-110.48378497 207.50055927 -108.95486935 204.32987919 -107.42700195 201.15869141 C-106.887771 200.04026855 -106.34854004 198.9218457 -105.79296875 197.76953125 C-105.3239917 196.79604736 -104.85501465 195.82256348 -104.37182617 194.81958008 C-103 192 -103 192 -101.20043945 189.0144043 C-99.63675291 185.08785605 -100.46392485 183.87840596 -102 180 C-103.08092956 177.67547175 -104.1865688 175.38990903 -105.34681702 173.10623169 C-105.68267159 172.43704708 -106.01852617 171.76786247 -106.36455816 171.07839954 C-107.48542646 168.84737644 -108.61199511 166.61928208 -109.73852539 164.39111328 C-110.54544962 162.78765671 -111.35198368 161.18400374 -112.15815735 159.58016968 C-113.89231115 156.13171413 -115.62879057 152.68444333 -117.36696053 149.23801041 C-120.11615423 143.78581732 -122.85749277 138.32969958 -125.59727478 132.87277222 C-133.38827805 117.35757855 -141.18586817 101.84572165 -149.00024414 86.34228516 C-153.3179188 77.77601259 -157.62698886 69.20546968 -161.92654985 60.63009059 C-164.64637535 55.20662224 -167.3766272 49.78857628 -170.11466038 44.37427926 C-171.81699313 41.00167102 -173.50919175 37.62405552 -175.19856071 34.2449379 C-175.98245495 32.68198487 -176.77046308 31.12108717 -177.56292725 29.56246185 C-178.64657627 27.42964367 -179.71503082 25.28984534 -180.78016663 23.1477356 C-181.09494731 22.53701553 -181.40972798 21.92629545 -181.73404747 21.29706872 C-183.9467506 16.78889438 -184.67597681 12.9524068 -185 8 C-183.57717319 4.83616148 -181.12340415 2.56170207 -178 1 C-171.85934515 1.07246512 -166.3505967 2.64850484 -160.6640625 4.81640625 C-159.88378693 5.10436569 -159.10351135 5.39232513 -158.29959106 5.68901062 C-155.73768351 6.63717229 -153.18143857 7.59970087 -150.625 8.5625 C-148.81186066 9.23690991 -146.99837704 9.91039487 -145.18457031 10.58300781 C-141.38359839 11.99448785 -137.58496647 13.41202417 -133.78808594 14.83447266 C-128.11615594 16.95873156 -122.43774881 19.06522764 -116.7578125 21.16796875 C-108.64911423 24.17059766 -100.54841059 27.19403209 -92.45111084 30.22724915 C-87.69978407 32.00341646 -82.94022982 33.75321984 -78.16711426 35.4699707 C-75.44100165 36.4519984 -72.71974935 37.44704158 -69.99914551 38.44421387 C-68.19120856 39.10094964 -66.37645812 39.73883452 -64.56152344 40.37597656 C-54.53835715 44.06935781 -51.18943281 48.9269209 -46.6875 58.375 C-46.14899414 59.47908203 -46.14899414 59.47908203 -45.59960938 60.60546875 C-44.72562986 62.40004002 -43.86174832 64.19952337 -43 66 C-40.29667578 62.68854301 -38.45747715 59.10590206 -36.62890625 55.26953125 C-36.31032654 54.60976288 -35.99174683 53.94999451 -35.66351318 53.27023315 C-34.98051042 51.85420692 -34.29948904 50.43722359 -33.62026978 49.01937866 C-32.55465026 46.79612268 -31.48255321 44.57609286 -30.40893555 42.35668945 C-27.04430374 35.39168188 -23.71447503 28.41240805 -20.453125 21.3984375 C-19.65152954 19.68756958 -19.65152954 19.68756958 -18.83374023 17.94213867 C-17.84298535 15.82245429 -16.86276484 13.69780383 -15.89477539 11.56762695 C-12.36709877 4.03871275 -9.25610904 -1.4614909 0 0 Z " fill="#191919" transform="translate(1001,813)"/>
</svg>
